HIERARCHY
ROOT Hips
{
	OFFSET 0.00000 0.00000 0.00000
	CHANNELS 6 Xposition Yposition Zposition Yrotation Zrotation Xrotation 
	JOINT Lumbar
	{
		OFFSET 0 0 0
		CHANNELS 3 Zrotation Xrotation Yrotation
		JOINT Neck
		{
			OFFSET 0.00 0.2701 0.00
			CHANNELS 3 Zrotation Xrotation Yrotation
			End Site
			{
				OFFSET 0.00 0.1379 0.00
			}
		}
		JOINT RightShoulder
		{
			OFFSET 0.0119 0.2289 0.1181
			CHANNELS 3 Zrotation Xrotation Yrotation
			JOINT RightElbow
			{
				OFFSET 0.00 -0.1475 0.00
				CHANNELS 2 Zrotation Yrotation
				JOINT RightWrist
				{
					OFFSET 0.00 -0.1605 0.00
					CHANNELS 2 Zrotation Xrotation
					End Site
					{
						OFFSET 0.0040 -0.1068 0.0006
					}
				}
			}
		}
		JOINT LeftShoulder
		{
			OFFSET 0.0119 0.2289 -0.1181
			CHANNELS 3 Zrotation Xrotation Yrotation
			JOINT LeftElbow
			{
				OFFSET 0.00 -0.1475 0.00
				CHANNELS 2 Zrotation Yrotation
				JOINT LeftWrist
				{
					OFFSET 0.00 -0.1605 0.00
					CHANNELS 2 Zrotation Xrotation
					End Site
					{
						OFFSET 0.0040 -0.1068 -0.0006
					}
				}
			}
		}
	}
	JOINT RightHip
	{
		OFFSET 0.0316 -0.0424 0.0458
		CHANNELS 3 Zrotation Xrotation Yrotation
		JOINT RightKnee
		{
			OFFSET 0.00 -0.2438 0.00
			CHANNELS 1 Zrotation
			JOINT RightAnkle
			{
				OFFSET 0.00 -0.2449 0.00
				CHANNELS 3 Zrotation Xrotation Yrotation
				End Site
				{
					OFFSET 0.1237 -0.0542 0.0051
				}
			}
		}
	}
	JOINT LeftHip
	{
		OFFSET 0.0316 -0.0424 -0.0458
		CHANNELS 3 Zrotation Xrotation Yrotation
		JOINT LeftKnee
		{
			OFFSET 0.00 -0.2438 0.00
			CHANNELS 1 Zrotation
			JOINT LeftAnkle
			{
				OFFSET 0.00 -0.2449 0.00
				CHANNELS 3 Zrotation Xrotation Yrotation
				End Site
				{
					OFFSET 0.1237 -0.0542 -0.0051
				}
			}
		}
	}
}
MOTION
Frames: 11
Frame Time: 0.02
0 0.57926 -0 183.55777 0 -3.23876 2.21805 2.53259 -4.14005 -32.91944 2.66096 3.56342 -19.6141 -70.90317 -81.94313 23.49727 73.45037 -21.98238 -1.54072 -1.46827 75.24195 64.09152 23.09226 -70.14691 -33.80416 1.59278 -3.76905 3.06732 6.77746 -6.50729 -1.7382 -2.80464 -6.39653 -2.32065 4.47835 1.84949 -7.01993 4.5064 2.19836 1.65556
-4e-05 0.57926 4e-05 183.55002 0 -3.2385 2.21755 2.53646 -4.13274 -32.90033 2.66126 3.57317 -19.68276 -70.89357 -81.97797 23.48771 73.46641 -22.00583 -1.54508 -1.38612 75.18856 64.00847 23.1232 -70.05614 -33.91078 1.55977 -3.76349 3.06378 6.77943 -6.52524 -1.72455 -2.79693 -6.39129 -2.32388 4.47543 1.86898 -7.02487 4.52187 2.19171 1.6521
-9e-05 0.57925 8e-05 183.54234 0 -3.23826 2.21698 2.54034 -4.12552 -32.88126 2.66163 3.58286 -19.75035 -70.88387 -82.01348 23.47852 73.48303 -22.02807 -1.54936 -1.3049 75.13515 63.92642 23.1541 -69.96628 -34.01651 1.52717 -3.75803 3.06026 6.78127 -6.54302 -1.71099 -2.78931 -6.38599 -2.32713 4.47253 1.88826 -7.02975 4.53731 2.18511 1.64868
-0.00013 0.57925 0.00012 183.53482 0 -3.23808 2.21617 2.54419 -4.11859 -32.86208 2.66235 3.59245 -19.81448 -70.87375 -82.05468 23.47095 73.50286 -22.04337 -1.55297 -1.22683 75.08127 63.84763 23.1849 -69.87872 -34.11993 1.49582 -3.75286 3.05678 6.78263 -6.56023 -1.69769 -2.78198 -6.3805 -2.33043 4.46969 1.90687 -7.03449 4.55253 2.17867 1.64555
-0.00017 0.57924 0.00016 183.5264 0 -3.23757 2.2167 2.54811 -4.11014 -32.84341 2.6613 3.60263 -19.8971 -70.86591 -82.06888 23.45506 73.50654 -22.09266 -1.5597 -1.13233 75.03007 63.75167 23.2159 -69.77841 -34.23581 1.45777 -3.74607 3.05304 6.78658 -6.58041 -1.68302 -2.77313 -6.37612 -2.33343 4.46655 1.929 -7.03998 4.56861 2.17141 1.64108
-0.00021 0.57924 0.0002 183.51989 0 -3.23775 2.21437 2.55192 -4.1049 -32.82374 2.66393 3.61153 -19.9404 -70.85322 -82.13804 23.45657 73.54378 -22.07191 -1.56011 -1.07252 74.97308 63.69207 23.24671 -69.70554 -34.32506 1.43395 -3.74275 3.04987 6.785 -6.5943 -1.67126 -2.7675 -6.36933 -2.3371 4.46404 1.94369 -7.04386 4.58306 2.16589 1.63932
-0.00026 0.57923 0.00023 183.51865 0 -3.23999 2.20404 2.55525 -4.10894 -32.79994 2.67761 3.61712 -19.8728 -70.82634 -82.38506 23.51026 73.68381 -21.83326 -1.53986 -1.11195 74.89913 63.73558 23.27601 -69.70679 -34.34148 1.45023 -3.74913 3.04829 6.76796 -6.59056 -1.66753 -2.77105 -6.35603 -2.34256 4.46327 1.93709 -7.04343 4.59164 2.16505 1.64643
-0.00031 0.57923 0.00026 183.51933 0 -3.24292 2.19083 2.55853 -4.11616 -32.77532 2.69482 3.62137 -19.7655 -70.79451 -82.68335 23.58113 73.85634 -21.52764 -1.51378 -1.18604 74.81925 63.8156 23.30559 -69.73649 -34.33069 1.48079 -3.75899 3.04728 6.74538 -6.58052 -1.66674 -2.77781 -6.34027 -2.34873 4.46312 1.92308 -7.04135 4.59878 2.16597 1.6561
-0.00036 0.57922 0.0003 183.5191 0 -3.24545 2.17901 2.56192 -4.12163 -32.75197 2.70985 3.62613 -19.67818 -70.76563 -82.9411 23.64109 74.0072 -21.26889 -1.49247 -1.24177 74.74284 63.87692 23.33535 -69.75369 -34.33221 1.50424 -3.76718 3.04598 6.72541 -6.57353 -1.6646 -2.78293 -6.32548 -2.35467 4.46267 1.91295 -7.03991 4.6076 2.16615 1.66366
-0.0004 0.57922 0.00033 183.51901 0 -3.24832 2.16691 2.56487 -4.12832 -32.72494 2.72739 3.63136 -19.58405 -70.73446 -83.27028 23.71277 74.18585 -20.9428 -1.4623 -1.30753 74.66386 63.94612 23.36267 -69.76726 -34.3349 1.5301 -3.77575 3.04482 6.70499 -6.56571 -1.66254 -2.7888 -6.31121 -2.36026 4.46229 1.90072 -7.03889 4.61237 2.16608 1.67496
-0.00045 0.57921 0.00036 183.51909 0 -3.25067 2.15466 2.56881 -4.13334 -32.70523 2.74047 3.63522 -19.49298 -70.70607 -83.46453 23.76582 74.31601 -20.73856 -1.44908 -1.36186 74.58796 64.00884 23.39657 -69.79745 -34.32751 1.55459 -3.78435 3.04351 6.68428 -6.55817 -1.66101 -2.79388 -6.29541 -2.3667 4.46193 1.89101 -7.03667 4.62486 2.16693 1.67936
